<?plantuml 1.2026.2beta1?><svg xmlns="http://www.w3.org/2000/svg" xmlns:xlink="http://www.w3.org/1999/xlink" contentStyleType="text/css" data-diagram-type="SEQUENCE" height="870px" preserveAspectRatio="none" style="width:1271px;height:870px;background:#FFFFFF;" version="1.1" viewBox="0 0 1271 870" width="1271px" zoomAndPan="magnify"><defs/><g><rect fill="none" height="103.2031" style="stroke:#000000;stroke-width:1.5;" width="593.6831" x="671.1313" y="539.8516"/><g class="participant-lifeline" data-entity-uid="part1" data-qualified-name="user" id="part1-lifeline"><g><title>User</title><rect fill="#000000" fill-opacity="0.00000" height="691.9922" width="8" x="19.9551" y="83.5938"/><line style="stroke:#181818;stroke-width:0.5;stroke-dasharray:5,5;" x1="23" x2="23" y1="83.5938" y2="775.5859"/></g></g><g class="participant-lifeline" data-entity-uid="part2" data-qualified-name="frontend" id="part2-lifeline"><g><title>Frontend</title><rect fill="#000000" fill-opacity="0.00000" height="691.9922" width="8" x="311.1851" y="83.5938"/><line style="stroke:#181818;stroke-width:0.5;stroke-dasharray:5,5;" x1="314.6304" x2="314.6304" y1="83.5938" y2="775.5859"/></g></g><g class="participant-lifeline" data-entity-uid="part3" data-qualified-name="app" id="part3-lifeline"><g><title>FastAPI App</title><rect fill="#000000" fill-opacity="0.00000" height="691.9922" width="8" x="725.8135" y="83.5938"/><line style="stroke:#181818;stroke-width:0.5;stroke-dasharray:5,5;" x1="729.1313" x2="729.1313" y1="83.5938" y2="775.5859"/></g></g><g class="participant-lifeline" data-entity-uid="part4" data-qualified-name="google" id="part4-lifeline"><g><title>Google OAuth</title><rect fill="#000000" fill-opacity="0.00000" height="691.9922" width="8" x="1087.312" y="83.5938"/><line style="stroke:#181818;stroke-width:0.5;stroke-dasharray:5,5;" x1="1090.4863" x2="1090.4863" y1="83.5938" y2="775.5859"/></g></g><g class="participant-lifeline" data-entity-uid="part5" data-qualified-name="db" id="part5-lifeline"><g><title>Database</title><rect fill="#000000" fill-opacity="0.00000" height="691.9922" width="8" x="1201.9761" y="83.5938"/><line style="stroke:#181818;stroke-width:0.5;stroke-dasharray:5,5;" x1="1205.1377" x2="1205.1377" y1="83.5938" y2="775.5859"/></g></g><g class="participant participant-head" data-entity-uid="part1" data-qualified-name="user" id="part1-head"><text fill="#000000" font-family="sans-serif" font-size="14" lengthAdjust="spacing" textLength="31.9102" x="5" y="80.292">User</text><ellipse cx="23.9551" cy="15.7969" fill="#E2E2F0" rx="8" ry="8" style="stroke:#181818;stroke-width:0.5;"/><path d="M23.9551,23.7969 L23.9551,50.7969 M10.9551,31.7969 L36.9551,31.7969 M23.9551,50.7969 L10.9551,65.7969 M23.9551,50.7969 L36.9551,65.7969" fill="none" style="stroke:#181818;stroke-width:0.5;"/></g><g class="participant participant-tail" data-entity-uid="part1" data-qualified-name="user" id="part1-tail"><text fill="#000000" font-family="sans-serif" font-size="14" lengthAdjust="spacing" textLength="31.9102" x="5" y="787.5811">User</text><ellipse cx="23.9551" cy="799.3828" fill="#E2E2F0" rx="8" ry="8" style="stroke:#181818;stroke-width:0.5;"/><path d="M23.9551,807.3828 L23.9551,834.3828 M10.9551,815.3828 L36.9551,815.3828 M23.9551,834.3828 L10.9551,849.3828 M23.9551,834.3828 L36.9551,849.3828" fill="none" style="stroke:#181818;stroke-width:0.5;"/></g><g class="participant participant-head" data-entity-uid="part2" data-qualified-name="frontend" id="part2-head"><rect fill="#E2E2F0" height="30.2969" rx="2.5" ry="2.5" style="stroke:#181818;stroke-width:0.5;" width="77.1094" x="276.6304" y="52.2969"/><text fill="#000000" font-family="sans-serif" font-size="14" lengthAdjust="spacing" textLength="63.1094" x="283.6304" y="72.292">Frontend</text></g><g class="participant participant-tail" data-entity-uid="part2" data-qualified-name="frontend" id="part2-tail"><rect fill="#E2E2F0" height="30.2969" rx="2.5" ry="2.5" style="stroke:#181818;stroke-width:0.5;" width="77.1094" x="276.6304" y="774.5859"/><text fill="#000000" font-family="sans-serif" font-size="14" lengthAdjust="spacing" textLength="63.1094" x="283.6304" y="794.5811">Frontend</text></g><g class="participant participant-head" data-entity-uid="part3" data-qualified-name="app" id="part3-head"><rect fill="#E2E2F0" height="30.2969" rx="2.5" ry="2.5" style="stroke:#181818;stroke-width:0.5;" width="97.3643" x="681.1313" y="52.2969"/><text fill="#000000" font-family="sans-serif" font-size="14" lengthAdjust="spacing" textLength="83.3643" x="688.1313" y="72.292">FastAPI App</text></g><g class="participant participant-tail" data-entity-uid="part3" data-qualified-name="app" id="part3-tail"><rect fill="#E2E2F0" height="30.2969" rx="2.5" ry="2.5" style="stroke:#181818;stroke-width:0.5;" width="97.3643" x="681.1313" y="774.5859"/><text fill="#000000" font-family="sans-serif" font-size="14" lengthAdjust="spacing" textLength="83.3643" x="688.1313" y="794.5811">FastAPI App</text></g><g class="participant participant-head" data-entity-uid="part4" data-qualified-name="google" id="part4-head"><rect fill="#E2E2F0" height="46.5938" rx="2.5" ry="2.5" style="stroke:#181818;stroke-width:0.5;" width="111.6514" x="1035.4863" y="36"/><text fill="#000000" font-family="sans-serif" font-size="14" lengthAdjust="spacing" textLength="97.6514" x="1042.4863" y="55.9951">Google OAuth</text><text fill="#000000" font-family="sans-serif" font-size="14" lengthAdjust="spacing" textLength="92.6816" x="1044.9712" y="72.292">(google.com)</text></g><g class="participant participant-tail" data-entity-uid="part4" data-qualified-name="google" id="part4-tail"><rect fill="#E2E2F0" height="46.5938" rx="2.5" ry="2.5" style="stroke:#181818;stroke-width:0.5;" width="111.6514" x="1035.4863" y="774.5859"/><text fill="#000000" font-family="sans-serif" font-size="14" lengthAdjust="spacing" textLength="97.6514" x="1042.4863" y="794.5811">Google OAuth</text><text fill="#000000" font-family="sans-serif" font-size="14" lengthAdjust="spacing" textLength="92.6816" x="1044.9712" y="810.8779">(google.com)</text></g><g class="participant participant-head" data-entity-uid="part5" data-qualified-name="db" id="part5-head"><text fill="#000000" font-family="sans-serif" font-size="14" lengthAdjust="spacing" textLength="66.8008" x="1169.5757" y="63.9951">Database</text><text fill="#000000" font-family="sans-serif" font-size="14" lengthAdjust="spacing" textLength="91.6768" x="1157.1377" y="80.292">(PostgreSQL)</text><path d="M1187.9761,15 C1187.9761,5 1205.9761,5 1205.9761,5 C1205.9761,5 1223.9761,5 1223.9761,15 L1223.9761,41 C1223.9761,51 1205.9761,51 1205.9761,51 C1205.9761,51 1187.9761,51 1187.9761,41 L1187.9761,15" fill="#E2E2F0" style="stroke:#181818;stroke-width:0.5;"/><path d="M1187.9761,15 C1187.9761,25 1205.9761,25 1205.9761,25 C1205.9761,25 1223.9761,25 1223.9761,15" fill="none" style="stroke:#181818;stroke-width:0.5;"/></g><g class="participant participant-tail" data-entity-uid="part5" data-qualified-name="db" id="part5-tail"><text fill="#000000" font-family="sans-serif" font-size="14" lengthAdjust="spacing" textLength="66.8008" x="1169.5757" y="787.5811">Database</text><text fill="#000000" font-family="sans-serif" font-size="14" lengthAdjust="spacing" textLength="91.6768" x="1157.1377" y="803.8779">(PostgreSQL)</text><path d="M1187.9761,817.1797 C1187.9761,807.1797 1205.9761,807.1797 1205.9761,807.1797 C1205.9761,807.1797 1223.9761,807.1797 1223.9761,817.1797 L1223.9761,843.1797 C1223.9761,853.1797 1205.9761,853.1797 1205.9761,853.1797 C1205.9761,853.1797 1187.9761,853.1797 1187.9761,843.1797 L1187.9761,817.1797" fill="#E2E2F0" style="stroke:#181818;stroke-width:0.5;"/><path d="M1187.9761,817.1797 C1187.9761,827.1797 1205.9761,827.1797 1205.9761,827.1797 C1205.9761,827.1797 1223.9761,827.1797 1223.9761,817.1797" fill="none" style="stroke:#181818;stroke-width:0.5;"/></g><g class="message" data-entity-1="part1" data-entity-2="part2" id="msg1"><polygon fill="#181818" points="303.1851,110.7266,313.1851,114.7266,303.1851,118.7266,307.1851,114.7266" style="stroke:#181818;stroke-width:1;"/><line style="stroke:#181818;stroke-width:1;" x1="23.9551" x2="309.1851" y1="114.7266" y2="114.7266"/><text fill="#000000" font-family="sans-serif" font-size="13" lengthAdjust="spacing" textLength="225.5767" x="30.9551" y="109.6606">&#1053;&#1072;&#1078;&#1080;&#1084;&#1072;&#1077;&#1090; &#171;&#1042;&#1086;&#1081;&#1090;&#1080; &#1095;&#1077;&#1088;&#1077;&#1079; Google&#187;</text></g><g class="message" data-entity-1="part2" data-entity-2="part3" id="msg2"><polygon fill="#181818" points="717.8135,139.8594,727.8135,143.8594,717.8135,147.8594,721.8135,143.8594" style="stroke:#181818;stroke-width:1;"/><line style="stroke:#181818;stroke-width:1;" x1="315.1851" x2="723.8135" y1="143.8594" y2="143.8594"/><text fill="#000000" font-family="sans-serif" font-size="13" lengthAdjust="spacing" textLength="112.6836" x="322.1851" y="138.7935">GET /auth/google</text></g><g class="message" data-entity-1="part3" data-entity-2="part2" id="msg3"><polygon fill="#181818" points="326.1851,199.2578,316.1851,203.2578,326.1851,207.2578,322.1851,203.2578" style="stroke:#181818;stroke-width:1;"/><line style="stroke:#181818;stroke-width:1;stroke-dasharray:2,2;" x1="320.1851" x2="728.8135" y1="203.2578" y2="203.2578"/><text fill="#000000" font-family="sans-serif" font-size="13" lengthAdjust="spacing" textLength="150.5854" x="332.1851" y="167.9263">302 Redirect to Google</text><text fill="#000000" font-family="sans-serif" font-size="13" lengthAdjust="spacing" textLength="265.7129" x="332.1851" y="183.0591">Location: https://accounts.google.com/...</text><text fill="#000000" font-family="sans-serif" font-size="13" lengthAdjust="spacing" textLength="390.6284" x="332.1851" y="198.1919">(redirect_uri=https://api.yoursite.com/auth/google/callback)</text></g><g class="message" data-entity-1="part2" data-entity-2="part4" id="msg4"><polygon fill="#181818" points="1079.312,228.3906,1089.312,232.3906,1079.312,236.3906,1083.312,232.3906" style="stroke:#181818;stroke-width:1;"/><line style="stroke:#181818;stroke-width:1;" x1="315.1851" x2="1085.312" y1="232.3906" y2="232.3906"/><text fill="#000000" font-family="sans-serif" font-size="13" lengthAdjust="spacing" textLength="203.1377" x="322.1851" y="227.3247">&#1055;&#1077;&#1088;&#1077;&#1085;&#1072;&#1087;&#1088;&#1072;&#1074;&#1083;&#1077;&#1085;&#1080;&#1077; &#1074; &#1073;&#1088;&#1072;&#1091;&#1079;&#1077;&#1088;&#1077;</text></g><g class="message" data-entity-1="part4" data-entity-2="part1" id="msg5"><polygon fill="#181818" points="34.9551,257.5234,24.9551,261.5234,34.9551,265.5234,30.9551,261.5234" style="stroke:#181818;stroke-width:1;"/><line style="stroke:#181818;stroke-width:1;" x1="28.9551" x2="1090.312" y1="261.5234" y2="261.5234"/><text fill="#000000" font-family="sans-serif" font-size="13" lengthAdjust="spacing" textLength="227.9761" x="40.9551" y="256.4575">&#1047;&#1072;&#1087;&#1088;&#1086;&#1089; &#1076;&#1086;&#1089;&#1090;&#1091;&#1087;&#1072; &#1082; &#1087;&#1088;&#1086;&#1092;&#1080;&#1083;&#1102;/email</text></g><g class="message" data-entity-1="part1" data-entity-2="part4" id="msg6"><polygon fill="#181818" points="1079.312,286.6563,1089.312,290.6563,1079.312,294.6563,1083.312,290.6563" style="stroke:#181818;stroke-width:1;"/><line style="stroke:#181818;stroke-width:1;stroke-dasharray:2,2;" x1="23.9551" x2="1085.312" y1="290.6563" y2="290.6563"/><text fill="#000000" font-family="sans-serif" font-size="13" lengthAdjust="spacing" textLength="168.3716" x="30.9551" y="285.5903">&#1055;&#1086;&#1076;&#1090;&#1074;&#1077;&#1088;&#1078;&#1076;&#1072;&#1077;&#1090; &#1089;&#1086;&#1075;&#1083;&#1072;&#1089;&#1080;&#1077;</text></g><g class="message" data-entity-1="part4" data-entity-2="part3" id="msg7"><polygon fill="#181818" points="740.8135,315.7891,730.8135,319.7891,740.8135,323.7891,736.8135,319.7891" style="stroke:#181818;stroke-width:1;"/><line style="stroke:#181818;stroke-width:1;stroke-dasharray:2,2;" x1="734.8135" x2="1090.312" y1="319.7891" y2="319.7891"/><text fill="#000000" font-family="sans-serif" font-size="13" lengthAdjust="spacing" textLength="337.4985" x="746.8135" y="314.7231">GET /auth/google/callback?code=ABC123&amp;state=...</text></g><g class="message" data-entity-1="part3" data-entity-2="part4" id="msg8"><polygon fill="#181818" points="1079.312,360.0547,1089.312,364.0547,1079.312,368.0547,1083.312,364.0547" style="stroke:#181818;stroke-width:1;"/><line style="stroke:#181818;stroke-width:1;" x1="729.8135" x2="1085.312" y1="364.0547" y2="364.0547"/><text fill="#000000" font-family="sans-serif" font-size="13" lengthAdjust="spacing" textLength="79.5933" x="736.8135" y="343.856">POST /token</text><text fill="#000000" font-family="sans-serif" font-size="13" lengthAdjust="spacing" textLength="300.7012" x="736.8135" y="358.9888">(client_id, client_secret, code, redirect_uri=...)</text></g><g class="message" data-entity-1="part4" data-entity-2="part3" id="msg9"><polygon fill="#181818" points="740.8135,389.1875,730.8135,393.1875,740.8135,397.1875,736.8135,393.1875" style="stroke:#181818;stroke-width:1;"/><line style="stroke:#181818;stroke-width:1;stroke-dasharray:2,2;" x1="734.8135" x2="1090.312" y1="393.1875" y2="393.1875"/><text fill="#000000" font-family="sans-serif" font-size="13" lengthAdjust="spacing" textLength="161.459" x="746.8135" y="388.1216">access_token + id_token</text></g><g class="message" data-entity-1="part3" data-entity-2="part4" id="msg10"><polygon fill="#181818" points="1079.312,433.4531,1089.312,437.4531,1079.312,441.4531,1083.312,437.4531" style="stroke:#181818;stroke-width:1;"/><line style="stroke:#181818;stroke-width:1;" x1="729.8135" x2="1085.312" y1="437.4531" y2="437.4531"/><text fill="#000000" font-family="sans-serif" font-size="13" lengthAdjust="spacing" textLength="87.4771" x="736.8135" y="417.2544">GET /userinfo</text><text fill="#000000" font-family="sans-serif" font-size="13" lengthAdjust="spacing" textLength="240.5508" x="736.8135" y="432.3872">(Authorization: Bearer access_token)</text></g><g class="message" data-entity-1="part4" data-entity-2="part3" id="msg11"><polygon fill="#181818" points="740.8135,462.5859,730.8135,466.5859,740.8135,470.5859,736.8135,466.5859" style="stroke:#181818;stroke-width:1;"/><line style="stroke:#181818;stroke-width:1;stroke-dasharray:2,2;" x1="734.8135" x2="1090.312" y1="466.5859" y2="466.5859"/><text fill="#000000" font-family="sans-serif" font-size="13" lengthAdjust="spacing" textLength="151.4805" x="746.8135" y="461.52">{email, name, picture}</text></g><g class="message" data-entity-1="part3" data-entity-2="part5" id="msg12"><polygon fill="#181818" points="1193.9761,491.7188,1203.9761,495.7188,1193.9761,499.7188,1197.9761,495.7188" style="stroke:#181818;stroke-width:1;"/><line style="stroke:#181818;stroke-width:1;" x1="729.8135" x2="1199.9761" y1="495.7188" y2="495.7188"/><text fill="#000000" font-family="sans-serif" font-size="13" lengthAdjust="spacing" textLength="259.1875" x="736.8135" y="490.6528">SELECT * FROM users WHERE email = ?</text></g><g class="message" data-entity-1="part5" data-entity-2="part3" id="msg13"><polygon fill="#181818" points="740.8135,520.8516,730.8135,524.8516,740.8135,528.8516,736.8135,524.8516" style="stroke:#181818;stroke-width:1;"/><line style="stroke:#181818;stroke-width:1;stroke-dasharray:2,2;" x1="734.8135" x2="1204.9761" y1="524.8516" y2="524.8516"/><text fill="#000000" font-family="sans-serif" font-size="13" lengthAdjust="spacing" textLength="170.8979" x="746.8135" y="519.7856">&#1055;&#1086;&#1083;&#1100;&#1079;&#1086;&#1074;&#1072;&#1090;&#1077;&#1083;&#1100; &#1085;&#1077; &#1085;&#1072;&#1081;&#1076;&#1077;&#1085;</text></g><path d="M671.1313,539.8516 L735.5742,539.8516 L735.5742,546.9844 L725.5742,556.9844 L671.1313,556.9844 L671.1313,539.8516" fill="#EEEEEE" style="stroke:#000000;stroke-width:1.5;"/><rect fill="none" height="103.2031" style="stroke:#000000;stroke-width:1.5;" width="593.6831" x="671.1313" y="539.8516"/><text fill="#000000" font-family="sans-serif" font-size="13" font-weight="bold" lengthAdjust="spacing" textLength="19.4429" x="686.1313" y="552.9185">alt</text><text fill="#000000" font-family="sans-serif" font-size="11" font-weight="bold" lengthAdjust="spacing" textLength="142.6133" x="750.5742" y="552.062">[&#1055;&#1086;&#1083;&#1100;&#1079;&#1086;&#1074;&#1072;&#1090;&#1077;&#1083;&#1100; &#1085;&#1086;&#1074;&#1099;&#1081;]</text><g class="message" data-entity-1="part3" data-entity-2="part5" id="msg14"><polygon fill="#181818" points="1193.9761,574.1172,1203.9761,578.1172,1193.9761,582.1172,1197.9761,578.1172" style="stroke:#181818;stroke-width:1;"/><line style="stroke:#181818;stroke-width:1;" x1="729.8135" x2="1199.9761" y1="578.1172" y2="578.1172"/><text fill="#000000" font-family="sans-serif" font-size="13" lengthAdjust="spacing" textLength="416.1523" x="736.8135" y="573.0513">INSERT INTO users (email, name, avatar_url, provider='google')</text></g><line style="stroke:#000000;stroke-width:1;stroke-dasharray:2,2;" x1="671.1313" x2="1264.8145" y1="587.1172" y2="587.1172"/><text fill="#000000" font-family="sans-serif" font-size="11" font-weight="bold" lengthAdjust="spacing" textLength="177.0151" x="676.1313" y="597.3276">[&#1055;&#1086;&#1083;&#1100;&#1079;&#1086;&#1074;&#1072;&#1090;&#1077;&#1083;&#1100; &#1089;&#1091;&#1097;&#1077;&#1089;&#1090;&#1074;&#1091;&#1077;&#1090;]</text><g class="message" data-entity-1="part3" data-entity-2="part3" id="msg15"><line style="stroke:#181818;stroke-width:1;" x1="729.8135" x2="771.8135" y1="622.0547" y2="622.0547"/><line style="stroke:#181818;stroke-width:1;" x1="771.8135" x2="771.8135" y1="622.0547" y2="635.0547"/><line style="stroke:#181818;stroke-width:1;" x1="730.8135" x2="771.8135" y1="635.0547" y2="635.0547"/><polygon fill="#181818" points="740.8135,631.0547,730.8135,635.0547,740.8135,639.0547,736.8135,635.0547" style="stroke:#181818;stroke-width:1;"/><text fill="#000000" font-family="sans-serif" font-size="13" lengthAdjust="spacing" textLength="227.2651" x="736.8135" y="616.9888">&#1054;&#1073;&#1085;&#1086;&#1074;&#1080;&#1090;&#1100; &#1076;&#1072;&#1085;&#1085;&#1099;&#1077; (&#1086;&#1087;&#1094;&#1080;&#1086;&#1085;&#1072;&#1083;&#1100;&#1085;&#1086;)</text></g><g class="message" data-entity-1="part3" data-entity-2="part3" id="msg16"><line style="stroke:#181818;stroke-width:1;" x1="729.8135" x2="771.8135" y1="671.1875" y2="671.1875"/><line style="stroke:#181818;stroke-width:1;" x1="771.8135" x2="771.8135" y1="671.1875" y2="684.1875"/><line style="stroke:#181818;stroke-width:1;" x1="730.8135" x2="771.8135" y1="684.1875" y2="684.1875"/><polygon fill="#181818" points="740.8135,680.1875,730.8135,684.1875,740.8135,688.1875,736.8135,684.1875" style="stroke:#181818;stroke-width:1;"/><text fill="#000000" font-family="sans-serif" font-size="13" lengthAdjust="spacing" textLength="189.668" x="736.8135" y="666.1216">create_access_token(user.id)</text></g><g class="message" data-entity-1="part3" data-entity-2="part2" id="msg17"><polygon fill="#181818" points="326.1851,724.4531,316.1851,728.4531,326.1851,732.4531,322.1851,728.4531" style="stroke:#181818;stroke-width:1;"/><line style="stroke:#181818;stroke-width:1;stroke-dasharray:2,2;" x1="320.1851" x2="728.8135" y1="728.4531" y2="728.4531"/><text fill="#000000" font-family="sans-serif" font-size="13" lengthAdjust="spacing" textLength="100.6104" x="332.1851" y="708.2544">302 Redirect to</text><text fill="#000000" font-family="sans-serif" font-size="13" lengthAdjust="spacing" textLength="300.9487" x="332.1851" y="723.3872">{FRONTEND_URI}/auth/callback?token=JWT...</text></g><g class="message" data-entity-1="part2" data-entity-2="part1" id="msg18"><polygon fill="#181818" points="34.9551,753.5859,24.9551,757.5859,34.9551,761.5859,30.9551,757.5859" style="stroke:#181818;stroke-width:1;"/><line style="stroke:#181818;stroke-width:1;" x1="28.9551" x2="314.1851" y1="757.5859" y2="757.5859"/><text fill="#000000" font-family="sans-serif" font-size="13" lengthAdjust="spacing" textLength="267.23" x="40.9551" y="752.52">&#1057;&#1086;&#1093;&#1088;&#1072;&#1085;&#1080;&#1090;&#1100; &#1090;&#1086;&#1082;&#1077;&#1085; &#1080; &#1087;&#1077;&#1088;&#1077;&#1081;&#1090;&#1080; &#1074; &#1087;&#1088;&#1086;&#1092;&#1080;&#1083;&#1100;</text></g><?plantuml-src ZLHDJnDH5DtFhxXX8Qr2gx0ZgQH0GGm2bX8s9Cthp0DUAFCcCwyaIaW4_8YHk73ZIerhDmKf56fBmYzuyuyyysOiBOXnzRxkFVVSUyzzp5RIf-M0-yG2gc6rFEOhOGkFkOe6fdtfAkuw0z7pMdAuOS82bL-SfRpd6IlcUVq6CrAkLpajv6jgOzLDhPjZnfPRQMCVdos7ALPX0QU1gMG7sqKPg7MVBpsVYssTYcL596duSPSDZP7-eklwL3VrBwoDS9-kVkXFkgFFmttTfF0TxbxfXZwZcCfLo-ew0mY4WJ5JA56MWM8s8HHT3_V76NquGaNk29_RYfHCu5RTEMap9QGxHXjAUS5ODijiMzPS5MIkiyrcCXcav2V-vPelSbrpJsHUo9eV21NRzX39sgnQhJ1xCstrqOvVe-o_9VcraVqbTdLzh5lctDGDqiUaZwBRy42VnPPMuWiKKqrWV4vyE-4UwPDe2VVXSAdhf2yeUNeDm5RuCSktcAWcZRZ1fADFKFHZ4-SKG74_mZqy_0IfEdOWPNKPt5d_RjhZjdHuBZyn-MXaz5wWcE8vLDAA-zCJV75X2GXARd8NPRQhWhkgB9mXIhO1jtskS0JS4FMr0NZfsupGGnu4POD83qWuyVPsP4CzgePmroHYHqANldYPQ6A2Cp-QhnwulqJRCKKT8fTjWPudR5Np-Mutc5E1pL9XhZ1PeliqNLnuPbeNqCgJGh50nfboD6x1y1hKDAGL7gBn7JIbZjOqeZD16mqoWZb7ao0L1AggVzhZ8loWposYNagpyqk5OWbBQI4XbEfBX6rZcdrK6JUUBxU5m_tSO9pzODhYLKpydL4XmeFmFHIq5saASeIMhkCdANxLHp4xtOHa3yc8hgtR8DkW51ukmxVGNCTa6qM1CGBZ6xFwWA0EQAlSswPKb556EEd_-0nMtHrqPRvKc9ygBnTdTsCjTqLiy79FLqf6kxrp_6S2lsF0tfZfRIUP8EcEleYwG_Z6C8lncCU_MZJMlLDv-1i0?></g></svg>